# xmcd
#
# Track frame offsets:
#  150
#  15359
#  27129
#  45396
#  64075
#  84305
#  100472
#  116905
#  135826
#  160780
#  173873
#  192356
#  208235
#
# Disc length: 3033 seconds
#
# Revision: 0
# Processed by: cddbd v1.5.1PL2 Copyright (c) Steve Scherf et al.
# Submitted via: Collectorz.com_Music_Collector 6.9
#
DISCID=a30bd70d
DTITLE=Nickel Creek - This Side
DYEAR=2002
DGENRE=Bluegrass
TTITLE0=Smoothie Song
TTITLE1=Spit On A Stranger
TTITLE2=Speak
TTITLE3=Hanging By A Thread
TTITLE4=I Should've Known Better
TTITLE5=This Side
TTITLE6=Green And Gray
TTITLE7=Seven Wonders
TTITLE8=House Carpenter
TTITLE9=Beauty And The Mess
TTITLE10=Sabra Girl
TTITLE11=Young
TTITLE12=Brand New Sidewalk
EXTD=
EXTT0=
EXTT1=
EXTT2=
EXTT3=
EXTT4=
EXTT5=
EXTT6=
EXTT7=
EXTT8=
EXTT9=
EXTT10=
EXTT11=
EXTT12=
PLAYORDER=
